<svg xmlns="http://www.w3.org/2000/svg" viewBox="0 0 16 16" shape-rendering="crispEdges">
  <rect width="16" height="16" fill="#1a4a1a" rx="3"/>
  <rect x="4" y="0" width="8" height="1" fill="#CC2200"/>
  <rect x="2" y="1" width="12" height="1" fill="#CC2200"/>
  <rect x="1" y="2" width="14" height="1" fill="#CC2200"/>
  <rect x="0" y="3" width="3" height="2" fill="#CC2200"/>
  <rect x="3" y="3" width="2" height="2" fill="#FFFFFF"/>
  <rect x="5" y="3" width="5" height="2" fill="#CC2200"/>
  <rect x="10" y="3" width="2" height="2" fill="#FFFFFF"/>
  <rect x="12" y="3" width="4" height="2" fill="#CC2200"/>
  <rect x="0" y="5" width="16" height="1" fill="#CC2200"/>
  <rect x="1" y="6" width="14" height="1" fill="#CC2200"/>
  <rect x="2" y="7" width="12" height="1" fill="#CC2200"/>
  <rect x="4" y="8" width="8" height="1" fill="#F0C080"/>
  <rect x="3" y="9" width="10" height="1" fill="#F0C080"/>
  <rect x="3" y="10" width="2" height="1" fill="#F0C080"/>
  <rect x="5" y="10" width="1" height="1" fill="#100000"/>
  <rect x="6" y="10" width="3" height="1" fill="#F0C080"/>
  <rect x="9" y="10" width="1" height="1" fill="#100000"/>
  <rect x="10" y="10" width="3" height="1" fill="#F0C080"/>
  <rect x="3" y="11" width="10" height="1" fill="#F0C080"/>
  <rect x="4" y="12" width="8" height="2" fill="#F0C080"/>
</svg>
